<svg xmlns="http://www.w3.org/2000/svg" viewBox="0 0 1155.11 290.27"><defs><style>.cls-1{fill:#fff;}.cls-2{fill:#249be1;}</style></defs><title>final_top-left</title><g id="bottom"><path class="cls-1" d="M247.21,145.16l-32-15.74A26.14,26.14,0,0,1,204,139.94l-63.1,30.74a26.1,26.1,0,0,1-37.56-23.49V121.87L71.12,106.23,6.75,137.93a12.09,12.09,0,0,0,.06,21.71l105.65,51.27a12.09,12.09,0,0,1,6.81,10.87v56.38A12.09,12.09,0,0,0,136.64,289l110.52-53.84A12.09,12.09,0,0,0,254,224.33V156A12.09,12.09,0,0,0,247.21,145.16Z" transform="translate(0)"/></g><g id="middle"><path class="cls-1" d="M197,68.39,184.7,62.31a23.61,23.61,0,0,1-10.61,10.43L137.71,90.46a23.54,23.54,0,0,1-33.87-21.17V59.55l-22-10.7L54.59,62.25a10.12,10.12,0,0,0,.05,18.19l59,28.64a10.12,10.12,0,0,1,5.7,9.11v29a10.12,10.12,0,0,0,14.56,9.1L197,125.55a10.12,10.12,0,0,0,5.69-9.1v-39A10.12,10.12,0,0,0,197,68.39Z" transform="translate(0)"/></g><g id="top"><path class="cls-2" d="M171.33,51.56V29.11a7.55,7.55,0,0,0-4.22-6.78L123.3.78a7.55,7.55,0,0,0-6.67,0L82.22,17.72a7.55,7.55,0,0,0,0,13.57l33.33,16.17a7.55,7.55,0,0,1,4.26,6.8v15a7.55,7.55,0,0,0,10.86,6.79l36.38-17.72A7.55,7.55,0,0,0,171.33,51.56Z" transform="translate(0)"/></g><g id="text"><path class="cls-1" d="M341.68,66.43h79.78V77.78H354.14v37.68h60.23v11.35H354.14v38.63h68.11v11.35H341.68Z" transform="translate(0)"/><path class="cls-1" d="M450.32,121.93v-.32c0-31.22,23.33-57.07,55.81-57.07,20,0,32,7.09,43,17.5l-8.51,9.14C531.36,82.35,521,76,506,76c-24.44,0-42.73,19.86-42.73,45.25v.31c0,25.54,18.45,45.56,42.73,45.56,15.14,0,25.07-5.83,35.63-15.92l8.2,8c-11.51,11.67-24.12,19.39-44.15,19.39C473.81,178.68,450.32,153.62,450.32,121.93Z" transform="translate(0)"/><path class="cls-1" d="M579.45,66.43h12.45v49h63.7v-49h12.45V176.79H655.6V127.13h-63.7v49.66H579.45Z" transform="translate(0)"/><path class="cls-1" d="M707.17,66.43h79.77V77.78H719.62v37.68h60.23v11.35H719.62v38.63h68.11v11.35H707.17Z" transform="translate(0)"/><path class="cls-1" d="M820.69,66.43h12.45v98.85h62.12v11.51H820.69Z" transform="translate(0)"/><path class="cls-1" d="M915,121.93v-.32c0-30.43,22.86-57.07,56.44-57.07s56.13,26.33,56.13,56.76v.31c0,30.43-22.86,57.07-56.44,57.07S915,152.35,915,121.93Zm99.64,0v-.32c0-25.07-18.29-45.56-43.52-45.56s-43.2,20.18-43.2,45.25v.31c0,25.07,18.29,45.56,43.51,45.56S1014.62,147,1014.62,121.93Z" transform="translate(0)"/><path class="cls-1" d="M1061.77,66.43h11.67L1143,154.88V66.43h12.14V176.79h-9.93l-71.27-90.5v90.5h-12.14Z" transform="translate(0)"/></g></svg>