<?xml version="1.0" standalone="no"?>
<!DOCTYPE svg PUBLIC "-//W3C//DTD SVG 20010904//EN"
 "http://www.w3.org/TR/2001/REC-SVG-20010904/DTD/svg10.dtd">
<svg version="1.0" xmlns="http://www.w3.org/2000/svg"
 width="291.000000pt" height="291.000000pt" viewBox="0 0 291.000000 291.000000"
 preserveAspectRatio="xMidYMid meet">
<metadata>
Created by potrace 1.11, written by Peter Selinger 2001-2013
</metadata>
<g transform="translate(0.000000,291.000000) scale(0.100000,-0.100000)"
fill="#000000" stroke="none">
<path d="M1172 2815 c-150 -74 -194 -100 -202 -119 -10 -28 -6 -62 11 -82 10
-12 195 -106 327 -166 63 -28 72 -49 75 -168 2 -93 4 -104 26 -121 13 -10 34
-19 47 -19 35 0 409 185 428 212 13 18 16 50 16 150 0 71 -5 138 -11 151 -8
18 -71 53 -249 141 -132 64 -247 116 -257 116 -10 0 -105 -43 -211 -95z"/>
<path d="M855 2349 c-77 -38 -148 -78 -159 -88 -13 -13 -19 -34 -20 -66 -1
-42 3 -50 34 -76 19 -16 37 -29 41 -29 4 0 140 -65 303 -145 271 -132 298
-148 310 -177 9 -23 14 -84 14 -195 0 -138 2 -166 18 -192 21 -36 70 -54 112
-41 15 4 174 80 355 169 282 138 329 164 338 188 6 17 11 119 11 251 1 257 4
249 -106 303 -59 30 -86 36 -86 20 0 -28 -84 -82 -260 -168 -107 -52 -212
-101 -233 -109 -80 -28 -185 1 -244 70 -40 45 -56 95 -58 180 l-1 69 -94 47
c-52 26 -104 50 -115 53 -13 4 -69 -19 -160 -64z"/>
<path d="M553 1679 l-340 -167 -17 -43 c-20 -49 -14 -93 18 -127 11 -13 71
-48 131 -77 306 -147 452 -217 468 -226 9 -5 25 -13 35 -19 9 -5 123 -60 252
-123 180 -87 240 -121 255 -143 18 -27 19 -50 20 -339 1 -339 3 -358 57 -389
57 -34 87 -26 343 99 363 178 658 321 781 381 110 53 163 92 165 123 1 9 2
178 3 376 2 355 -1 389 -32 427 -12 14 -333 178 -349 178 -3 0 -23 -18 -45
-41 -31 -32 -108 -74 -372 -204 -183 -89 -350 -168 -371 -175 -47 -15 -150 -8
-190 13 -51 27 -92 70 -119 124 -14 29 -26 55 -26 58 0 3 0 73 0 155 l0 150
-107 53 c-60 29 -133 65 -164 79 l-55 25 -341 -168z"/>
</g>
</svg>
